<?xml version="1.0" standalone="no"?>
<!DOCTYPE svg PUBLIC "-//W3C//DTD SVG 20010904//EN"
 "http://www.w3.org/TR/2001/REC-SVG-20010904/DTD/svg10.dtd">
<svg version="1.0" xmlns="http://www.w3.org/2000/svg"
 width="105.000000pt" height="98.000000pt" viewBox="0 0 105.000000 98.000000"
 preserveAspectRatio="xMidYMid meet">
<metadata>
Created by potrace 1.13, written by Peter Selinger 2001-2015
</metadata>
<g transform="translate(0.000000,98.000000) scale(0.100000,-0.100000)"
fill="#000000" stroke="none">
<path d="M545 728 c97 -72 148 -161 143 -251 l-3 -52 -39 4 c-88 8 -155 -71
-83 -98 36 -14 -97 -45 -195 -45 -96 -1 -96 -9 3 -27 94 -17 222 -8 286 21 94
40 152 130 137 211 -17 86 -99 183 -201 236 -94 50 -114 50 -48 1z"/>
<path d="M707 194 c-3 -3 -1 -14 6 -25 16 -25 1 -36 -21 -16 -25 22 -58 21
-81 -2 -19 -19 -20 -19 -37 0 -22 24 -55 24 -84 1 -22 -18 -24 -18 -41 -1 -15
15 -36 17 -155 17 -117 -1 -140 -4 -155 -19 -17 -17 -18 -16 -35 2 -34 38
-104 9 -104 -44 0 -51 73 -77 107 -37 17 19 17 19 30 0 17 -24 60 -26 91 -4
20 14 22 14 22 0 0 -9 7 -16 15 -16 11 0 15 12 15 45 0 37 3 45 19 45 21 0 31
-19 31 -61 0 -26 4 -29 30 -29 28 0 30 2 30 40 0 28 5 43 16 47 21 8 34 -13
34 -55 0 -23 4 -32 13 -29 6 2 11 10 10 16 -4 16 12 14 27 -4 18 -21 64 -19
85 5 l18 20 14 -20 c18 -26 67 -26 92 -1 18 18 19 18 35 0 18 -21 70 -27 64
-6 -3 6 -13 14 -24 16 -22 4 -34 19 -34 44 0 12 8 17 30 17 26 0 30 -4 30 -28
0 -31 22 -57 55 -65 19 -5 19 -5 -2 -12 -23 -7 -32 -35 -12 -35 33 0 78 42 79
74 0 19 1 19 20 -2 39 -42 110 -18 110 36 0 28 -34 62 -62 62 -12 0 -32 -10
-45 -22 l-23 -21 0 21 c0 13 -6 22 -14 22 -10 0 -16 -14 -18 -42 -3 -38 -6
-43 -28 -43 -18 0 -26 6 -28 23 -2 13 3 25 12 28 9 3 16 12 16 20 0 18 -46 19
-53 2 -4 -10 -6 -10 -6 0 -1 6 -12 12 -26 12 -14 0 -28 7 -31 15 -6 15 -26 20
-37 9z"/>
</g>
</svg>
